<svg width="117" height="123" viewBox="0 0 117 123" fill="none" xmlns="http://www.w3.org/2000/svg">
<path d="M1 51.4998C1 51.4998 16.2821 33.2085 30 30.4998C40.431 28.4402 46.4876 35.5923 57 33.9998C73.2778 31.534 76.3958 13.9208 92.5 10.4999C101.477 8.59295 115.5 10.4998 115.5 10.4998" stroke="#FF5151" stroke-width="2" stroke-linecap="round"/>
<path d="M30.5 30.3475C16.7821 33.0562 1.5 51.3475 1.5 51.3475V78.5H116V10.3475C116 10.3475 101.977 8.4406 93 10.3475C76.8958 13.7685 73.7778 31.3817 57.5 33.8475C46.9875 35.4399 40.931 28.2878 30.5 30.3475Z" fill="url(#paint0_linear_360_226)"/>
<path d="M46.28 9.17C46.2133 9.17 46.1567 9.14667 46.11 9.1C46.0633 9.05333 46.04 8.99667 46.04 8.93V6.98H44.12C44.0533 6.98 43.9967 6.95667 43.95 6.91C43.9033 6.86333 43.88 6.80667 43.88 6.74V6.21C43.88 6.13667 43.9033 6.08 43.95 6.04C43.9967 5.99333 44.0533 5.97 44.12 5.97H46.04V4.07C46.04 4.00333 46.0633 3.94667 46.11 3.9C46.1567 3.85333 46.2133 3.83 46.28 3.83H46.86C46.9333 3.83 46.99 3.85333 47.03 3.9C47.0767 3.94667 47.1 4.00333 47.1 4.07V5.97H49.02C49.0867 5.97 49.1433 5.99333 49.19 6.04C49.2367 6.08 49.26 6.13667 49.26 6.21V6.74C49.26 6.80667 49.2367 6.86333 49.19 6.91C49.1433 6.95667 49.0867 6.98 49.02 6.98H47.1V8.93C47.1 8.99667 47.0767 9.05333 47.03 9.1C46.99 9.14667 46.9333 9.17 46.86 9.17H46.28ZM52.7026 9.61C52.1292 9.61 51.6459 9.51667 51.2526 9.33C50.8592 9.13667 50.5592 8.88667 50.3526 8.58C50.1526 8.27333 50.0459 7.94667 50.0326 7.6C50.0259 7.54 50.0426 7.49333 50.0826 7.46C50.1292 7.42 50.1826 7.4 50.2426 7.4H51.1726C51.2459 7.4 51.3059 7.41667 51.3526 7.45C51.4059 7.47667 51.4459 7.52667 51.4726 7.6C51.5392 7.8 51.6326 7.96333 51.7526 8.09C51.8792 8.21667 52.0226 8.31 52.1826 8.37C52.3492 8.43 52.5226 8.46 52.7026 8.46C52.9426 8.46 53.1592 8.41333 53.3526 8.32C53.5526 8.22 53.7126 8.07333 53.8326 7.88C53.9526 7.68667 54.0126 7.45 54.0126 7.17C54.0126 6.92333 53.9559 6.71 53.8426 6.53C53.7292 6.35 53.5726 6.21 53.3726 6.11C53.1792 6.00333 52.9559 5.95 52.7026 5.95C52.5159 5.95 52.3626 5.97333 52.2426 6.02C52.1226 6.06667 52.0192 6.12 51.9326 6.18C51.8526 6.24 51.7792 6.29333 51.7126 6.34C51.6526 6.38667 51.5826 6.41 51.5026 6.41H50.5826C50.5226 6.41 50.4692 6.39 50.4226 6.35C50.3826 6.30333 50.3626 6.25 50.3626 6.19L50.7126 2.77C50.7192 2.68333 50.7492 2.61667 50.8026 2.57C50.8559 2.52333 50.9192 2.5 50.9926 2.5H54.7526C54.8192 2.5 54.8759 2.52333 54.9226 2.57C54.9692 2.61667 54.9926 2.67333 54.9926 2.74V3.41C54.9926 3.47667 54.9692 3.53333 54.9226 3.58C54.8759 3.62667 54.8192 3.65 54.7526 3.65H51.8626L51.7026 5.28C51.8226 5.2 51.9826 5.12333 52.1826 5.05C52.3826 4.97667 52.6592 4.94 53.0126 4.94C53.3326 4.94 53.6359 4.99333 53.9226 5.1C54.2159 5.2 54.4759 5.35 54.7026 5.55C54.9292 5.74333 55.1059 5.98 55.2326 6.26C55.3659 6.53333 55.4326 6.84667 55.4326 7.2C55.4326 7.68667 55.3192 8.11 55.0926 8.47C54.8659 8.83 54.5492 9.11 54.1426 9.31C53.7359 9.51 53.2559 9.61 52.7026 9.61ZM56.9438 9.5C56.8038 9.5 56.7338 9.43333 56.7338 9.3C56.7338 9.26 56.7471 9.22333 56.7738 9.19L61.7038 2.69C61.7504 2.63 61.7971 2.58333 61.8438 2.55C61.8904 2.51667 61.9571 2.5 62.0438 2.5H62.5738C62.7138 2.5 62.7838 2.56667 62.7838 2.7C62.7838 2.74 62.7704 2.77667 62.7438 2.81L57.8138 9.31C57.7671 9.37 57.7204 9.41667 57.6738 9.45C57.6338 9.48333 57.5671 9.5 57.4738 9.5H56.9438ZM61.7538 9.56C61.3071 9.56 60.9538 9.43667 60.6938 9.19C60.4338 8.94333 60.2904 8.62 60.2638 8.22C60.2571 8.04667 60.2538 7.89667 60.2538 7.77C60.2538 7.64333 60.2571 7.48667 60.2638 7.3C60.2904 6.9 60.4271 6.57667 60.6738 6.33C60.9271 6.08333 61.2871 5.96 61.7538 5.96C62.2271 5.96 62.5871 6.08333 62.8338 6.33C63.0871 6.57667 63.2238 6.9 63.2438 7.3C63.2571 7.48667 63.2638 7.64333 63.2638 7.77C63.2638 7.89667 63.2571 8.04667 63.2438 8.22C63.2238 8.62 63.0804 8.94333 62.8138 9.19C62.5538 9.43667 62.2004 9.56 61.7538 9.56ZM61.7538 8.78C61.9004 8.78 62.0138 8.75 62.0938 8.69C62.1804 8.63 62.2438 8.55333 62.2838 8.46C62.3238 8.36667 62.3438 8.27333 62.3438 8.18C62.3571 8.01333 62.3638 7.87333 62.3638 7.76C62.3638 7.64 62.3571 7.50333 62.3438 7.35C62.3371 7.19667 62.2904 7.05667 62.2038 6.93C62.1171 6.79667 61.9671 6.73 61.7538 6.73C61.5471 6.73 61.4004 6.79667 61.3138 6.93C61.2271 7.05667 61.1771 7.19667 61.1638 7.35C61.1571 7.50333 61.1538 7.64 61.1538 7.76C61.1538 7.87333 61.1571 8.01333 61.1638 8.18C61.1771 8.27333 61.2004 8.36667 61.2338 8.46C61.2738 8.55333 61.3338 8.63 61.4138 8.69C61.5004 8.75 61.6138 8.78 61.7538 8.78ZM57.7638 6.02C57.3171 6.02 56.9638 5.90333 56.7038 5.67C56.4438 5.43667 56.3004 5.12 56.2738 4.72C56.2671 4.54667 56.2638 4.39667 56.2638 4.27C56.2638 4.13667 56.2671 3.97667 56.2738 3.79C56.3004 3.39 56.4371 3.06667 56.6838 2.82C56.9371 2.57333 57.2971 2.45 57.7638 2.45C58.2371 2.45 58.5971 2.57333 58.8438 2.82C59.0971 3.06667 59.2338 3.39 59.2538 3.79C59.2671 3.97667 59.2738 4.13667 59.2738 4.27C59.2738 4.39667 59.2671 4.54667 59.2538 4.72C59.2338 5.12 59.0904 5.43667 58.8238 5.67C58.5638 5.90333 58.2104 6.02 57.7638 6.02ZM57.7638 5.28C57.9104 5.28 58.0238 5.25 58.1038 5.19C58.1904 5.13 58.2538 5.05333 58.2938 4.96C58.3338 4.86667 58.3538 4.77 58.3538 4.67C58.3671 4.50333 58.3738 4.36333 58.3738 4.25C58.3738 4.13 58.3671 3.99333 58.3538 3.84C58.3471 3.68667 58.3004 3.54667 58.2138 3.42C58.1271 3.29333 57.9771 3.23 57.7638 3.23C57.5571 3.23 57.4104 3.29333 57.3238 3.42C57.2371 3.54667 57.1904 3.68667 57.1838 3.84C57.1771 3.99333 57.1738 4.13 57.1738 4.25C57.1738 4.36333 57.1771 4.50333 57.1838 4.67C57.1904 4.77 57.2104 4.86667 57.2438 4.96C57.2838 5.05333 57.3438 5.13 57.4238 5.19C57.5104 5.25 57.6238 5.28 57.7638 5.28Z" fill="#FF5151"/>
<path d="M52.5 17.5L54.5 15.5M54.5 15.5L56.5 17.5M54.5 15.5V22.5" stroke="#FF5151" stroke-linecap="round" stroke-linejoin="round"/>
<rect x="9" y="98.5" width="107" height="24" rx="4" fill="#FFEFE7"/>
<path d="M25.3047 109.924V110.943H19.457V109.924H25.3047ZM22.9258 107.434V113.645H21.8418V107.434H22.9258ZM27.8887 110.439L27.0215 110.217L27.4492 105.969H31.8262V106.971H28.3691L28.1113 109.291C28.2676 109.201 28.4648 109.117 28.7031 109.039C28.9453 108.961 29.2227 108.922 29.5352 108.922C29.9297 108.922 30.2832 108.99 30.5957 109.127C30.9082 109.26 31.1738 109.451 31.3926 109.701C31.6152 109.951 31.7852 110.252 31.9023 110.604C32.0195 110.955 32.0781 111.348 32.0781 111.781C32.0781 112.191 32.0215 112.568 31.9082 112.912C31.7988 113.256 31.6328 113.557 31.4102 113.814C31.1875 114.068 30.9062 114.266 30.5664 114.406C30.2305 114.547 29.834 114.617 29.377 114.617C29.0332 114.617 28.707 114.57 28.3984 114.477C28.0938 114.379 27.8203 114.232 27.5781 114.037C27.3398 113.838 27.1445 113.592 26.9922 113.299C26.8438 113.002 26.75 112.654 26.7109 112.256H27.7422C27.7891 112.576 27.8828 112.846 28.0234 113.064C28.1641 113.283 28.3477 113.449 28.5742 113.562C28.8047 113.672 29.0723 113.727 29.377 113.727C29.6348 113.727 29.8633 113.682 30.0625 113.592C30.2617 113.502 30.4297 113.373 30.5664 113.205C30.7031 113.037 30.8066 112.834 30.877 112.596C30.9512 112.357 30.9883 112.09 30.9883 111.793C30.9883 111.523 30.9512 111.273 30.877 111.043C30.8027 110.812 30.6914 110.611 30.543 110.439C30.3984 110.268 30.2207 110.135 30.0098 110.041C29.7988 109.943 29.5566 109.895 29.2832 109.895C28.9199 109.895 28.6445 109.943 28.457 110.041C28.2734 110.139 28.084 110.271 27.8887 110.439ZM33.1738 108.061V107.609C33.1738 107.285 33.2441 106.99 33.3848 106.725C33.5254 106.459 33.7266 106.246 33.9883 106.086C34.25 105.926 34.5605 105.846 34.9199 105.846C35.2871 105.846 35.5996 105.926 35.8574 106.086C36.1191 106.246 36.3203 106.459 36.4609 106.725C36.6016 106.99 36.6719 107.285 36.6719 107.609V108.061C36.6719 108.377 36.6016 108.668 36.4609 108.934C36.3242 109.199 36.125 109.412 35.8633 109.572C35.6055 109.732 35.2949 109.812 34.9316 109.812C34.5684 109.812 34.2539 109.732 33.9883 109.572C33.7266 109.412 33.5254 109.199 33.3848 108.934C33.2441 108.668 33.1738 108.377 33.1738 108.061ZM33.9883 107.609V108.061C33.9883 108.24 34.0215 108.41 34.0879 108.57C34.1582 108.73 34.2637 108.861 34.4043 108.963C34.5449 109.061 34.7207 109.109 34.9316 109.109C35.1426 109.109 35.3164 109.061 35.4531 108.963C35.5898 108.861 35.6914 108.73 35.7578 108.57C35.8242 108.41 35.8574 108.24 35.8574 108.061V107.609C35.8574 107.426 35.8223 107.254 35.752 107.094C35.6855 106.93 35.582 106.799 35.4414 106.701C35.3047 106.6 35.1309 106.549 34.9199 106.549C34.7129 106.549 34.5391 106.6 34.3984 106.701C34.2617 106.799 34.1582 106.93 34.0879 107.094C34.0215 107.254 33.9883 107.426 33.9883 107.609ZM37.3281 112.865V112.408C37.3281 112.088 37.3984 111.795 37.5391 111.529C37.6797 111.264 37.8809 111.051 38.1426 110.891C38.4043 110.73 38.7148 110.65 39.0742 110.65C39.4414 110.65 39.7539 110.73 40.0117 110.891C40.2734 111.051 40.4746 111.264 40.6152 111.529C40.7559 111.795 40.8262 112.088 40.8262 112.408V112.865C40.8262 113.186 40.7559 113.479 40.6152 113.744C40.4785 114.01 40.2793 114.223 40.0176 114.383C39.7598 114.543 39.4492 114.623 39.0859 114.623C38.7227 114.623 38.4102 114.543 38.1484 114.383C37.8867 114.223 37.6836 114.01 37.5391 113.744C37.3984 113.479 37.3281 113.186 37.3281 112.865ZM38.1426 112.408V112.865C38.1426 113.045 38.1758 113.217 38.2422 113.381C38.3125 113.541 38.418 113.672 38.5586 113.773C38.6992 113.871 38.875 113.92 39.0859 113.92C39.2969 113.92 39.4707 113.871 39.6074 113.773C39.748 113.672 39.8516 113.541 39.918 113.381C39.9844 113.221 40.0176 113.049 40.0176 112.865V112.408C40.0176 112.225 39.9824 112.053 39.9121 111.893C39.8457 111.732 39.7422 111.604 39.6016 111.506C39.4648 111.404 39.2891 111.354 39.0742 111.354C38.8672 111.354 38.6934 111.404 38.5527 111.506C38.416 111.604 38.3125 111.732 38.2422 111.893C38.1758 112.053 38.1426 112.225 38.1426 112.408ZM39.3438 107.182L35.1777 113.85L34.5684 113.463L38.7344 106.795L39.3438 107.182ZM48.4609 111.154H46.1816V110.234H48.4609C48.9023 110.234 49.2598 110.164 49.5332 110.023C49.8066 109.883 50.0059 109.688 50.1309 109.438C50.2598 109.188 50.3242 108.902 50.3242 108.582C50.3242 108.289 50.2598 108.014 50.1309 107.756C50.0059 107.498 49.8066 107.291 49.5332 107.135C49.2598 106.975 48.9023 106.895 48.4609 106.895H46.4453V114.5H45.3145V105.969H48.4609C49.1055 105.969 49.6504 106.08 50.0957 106.303C50.541 106.525 50.8789 106.834 51.1094 107.229C51.3398 107.619 51.4551 108.066 51.4551 108.57C51.4551 109.117 51.3398 109.584 51.1094 109.971C50.8789 110.357 50.541 110.652 50.0957 110.855C49.6504 111.055 49.1055 111.154 48.4609 111.154ZM56.3887 113.416V110.152C56.3887 109.902 56.3379 109.686 56.2363 109.502C56.1387 109.314 55.9902 109.17 55.791 109.068C55.5918 108.967 55.3457 108.916 55.0527 108.916C54.7793 108.916 54.5391 108.963 54.332 109.057C54.1289 109.15 53.9688 109.273 53.8516 109.426C53.7383 109.578 53.6816 109.742 53.6816 109.918H52.5977C52.5977 109.691 52.6562 109.467 52.7734 109.244C52.8906 109.021 53.0586 108.82 53.2773 108.641C53.5 108.457 53.7656 108.312 54.0742 108.207C54.3867 108.098 54.7344 108.043 55.1172 108.043C55.5781 108.043 55.9844 108.121 56.3359 108.277C56.6914 108.434 56.9688 108.67 57.168 108.986C57.3711 109.299 57.4727 109.691 57.4727 110.164V113.117C57.4727 113.328 57.4902 113.553 57.5254 113.791C57.5645 114.029 57.6211 114.234 57.6953 114.406V114.5H56.5645C56.5098 114.375 56.4668 114.209 56.4355 114.002C56.4043 113.791 56.3887 113.596 56.3887 113.416ZM56.5762 110.656L56.5879 111.418H55.4922C55.1836 111.418 54.9082 111.443 54.666 111.494C54.4238 111.541 54.2207 111.613 54.0566 111.711C53.8926 111.809 53.7676 111.932 53.6816 112.08C53.5957 112.225 53.5527 112.395 53.5527 112.59C53.5527 112.789 53.5977 112.971 53.6875 113.135C53.7773 113.299 53.9121 113.43 54.0918 113.527C54.2754 113.621 54.5 113.668 54.7656 113.668C55.0977 113.668 55.3906 113.598 55.6445 113.457C55.8984 113.316 56.0996 113.145 56.248 112.941C56.4004 112.738 56.4824 112.541 56.4941 112.35L56.957 112.871C56.9297 113.035 56.8555 113.217 56.7344 113.416C56.6133 113.615 56.4512 113.807 56.248 113.99C56.0488 114.17 55.8105 114.32 55.5332 114.441C55.2598 114.559 54.9512 114.617 54.6074 114.617C54.1777 114.617 53.8008 114.533 53.4766 114.365C53.1562 114.197 52.9062 113.973 52.7266 113.691C52.5508 113.406 52.4629 113.088 52.4629 112.736C52.4629 112.396 52.5293 112.098 52.6621 111.84C52.7949 111.578 52.9863 111.361 53.2363 111.189C53.4863 111.014 53.7871 110.881 54.1387 110.791C54.4902 110.701 54.8828 110.656 55.3164 110.656H56.5762ZM62.8691 112.818C62.8691 112.662 62.834 112.518 62.7637 112.385C62.6973 112.248 62.5586 112.125 62.3477 112.016C62.1406 111.902 61.8281 111.805 61.4102 111.723C61.0586 111.648 60.7402 111.561 60.4551 111.459C60.1738 111.357 59.9336 111.234 59.7344 111.09C59.5391 110.945 59.3887 110.775 59.2832 110.58C59.1777 110.385 59.125 110.156 59.125 109.895C59.125 109.645 59.1797 109.408 59.2891 109.186C59.4023 108.963 59.5605 108.766 59.7637 108.594C59.9707 108.422 60.2188 108.287 60.5078 108.189C60.7969 108.092 61.1191 108.043 61.4746 108.043C61.9824 108.043 62.416 108.133 62.7754 108.312C63.1348 108.492 63.4102 108.732 63.6016 109.033C63.793 109.33 63.8887 109.66 63.8887 110.023H62.8047C62.8047 109.848 62.752 109.678 62.6465 109.514C62.5449 109.346 62.3945 109.207 62.1953 109.098C62 108.988 61.7598 108.934 61.4746 108.934C61.1738 108.934 60.9297 108.98 60.7422 109.074C60.5586 109.164 60.4238 109.279 60.3379 109.42C60.2559 109.561 60.2148 109.709 60.2148 109.865C60.2148 109.982 60.2344 110.088 60.2734 110.182C60.3164 110.271 60.3906 110.355 60.4961 110.434C60.6016 110.508 60.75 110.578 60.9414 110.645C61.1328 110.711 61.377 110.777 61.6738 110.844C62.1934 110.961 62.6211 111.102 62.957 111.266C63.293 111.43 63.543 111.631 63.707 111.869C63.8711 112.107 63.9531 112.396 63.9531 112.736C63.9531 113.014 63.8945 113.268 63.7773 113.498C63.6641 113.729 63.498 113.928 63.2793 114.096C63.0645 114.26 62.8066 114.389 62.5059 114.482C62.209 114.572 61.875 114.617 61.5039 114.617C60.9453 114.617 60.4727 114.518 60.0859 114.318C59.6992 114.119 59.4062 113.861 59.207 113.545C59.0078 113.229 58.9082 112.895 58.9082 112.543H59.998C60.0137 112.84 60.0996 113.076 60.2559 113.252C60.4121 113.424 60.6035 113.547 60.8301 113.621C61.0566 113.691 61.2812 113.727 61.5039 113.727C61.8008 113.727 62.0488 113.688 62.248 113.609C62.4512 113.531 62.6055 113.424 62.7109 113.287C62.8164 113.15 62.8691 112.994 62.8691 112.818ZM68.0312 108.16V108.992H64.6035V108.16H68.0312ZM65.7637 106.619H66.8477V112.93C66.8477 113.145 66.8809 113.307 66.9473 113.416C67.0137 113.525 67.0996 113.598 67.2051 113.633C67.3105 113.668 67.4238 113.686 67.5449 113.686C67.6348 113.686 67.7285 113.678 67.8262 113.662C67.9277 113.643 68.0039 113.627 68.0547 113.615L68.0605 114.5C67.9746 114.527 67.8613 114.553 67.7207 114.576C67.584 114.604 67.418 114.617 67.2227 114.617C66.957 114.617 66.7129 114.564 66.4902 114.459C66.2676 114.354 66.0898 114.178 65.957 113.932C65.8281 113.682 65.7637 113.346 65.7637 112.924V106.619ZM73.3574 109.42V114.5H72.2676V108.16H73.2988L73.3574 109.42ZM73.1348 111.09L72.6309 111.072C72.6348 110.639 72.6914 110.238 72.8008 109.871C72.9102 109.5 73.0723 109.178 73.2871 108.904C73.502 108.631 73.7695 108.42 74.0898 108.271C74.4102 108.119 74.7812 108.043 75.2031 108.043C75.5 108.043 75.7734 108.086 76.0234 108.172C76.2734 108.254 76.4902 108.385 76.6738 108.564C76.8574 108.744 77 108.975 77.1016 109.256C77.2031 109.537 77.2539 109.877 77.2539 110.275V114.5H76.1699V110.328C76.1699 109.996 76.1133 109.73 76 109.531C75.8906 109.332 75.7344 109.188 75.5312 109.098C75.3281 109.004 75.0898 108.957 74.8164 108.957C74.4961 108.957 74.2285 109.014 74.0137 109.127C73.7988 109.24 73.627 109.396 73.498 109.596C73.3691 109.795 73.2754 110.023 73.2168 110.281C73.1621 110.535 73.1348 110.805 73.1348 111.09ZM77.2422 110.492L76.5156 110.715C76.5195 110.367 76.5762 110.033 76.6855 109.713C76.7988 109.393 76.9609 109.107 77.1719 108.857C77.3867 108.607 77.6504 108.41 77.9629 108.266C78.2754 108.117 78.6328 108.043 79.0352 108.043C79.375 108.043 79.6758 108.088 79.9375 108.178C80.2031 108.268 80.4258 108.406 80.6055 108.594C80.7891 108.777 80.9277 109.014 81.0215 109.303C81.1152 109.592 81.1621 109.936 81.1621 110.334V114.5H80.0723V110.322C80.0723 109.967 80.0156 109.691 79.9023 109.496C79.793 109.297 79.6367 109.158 79.4336 109.08C79.2344 108.998 78.9961 108.957 78.7188 108.957C78.4805 108.957 78.2695 108.998 78.0859 109.08C77.9023 109.162 77.748 109.275 77.623 109.42C77.498 109.561 77.4023 109.723 77.3359 109.906C77.2734 110.09 77.2422 110.285 77.2422 110.492ZM82.5156 111.4V111.266C82.5156 110.809 82.582 110.385 82.7148 109.994C82.8477 109.6 83.0391 109.258 83.2891 108.969C83.5391 108.676 83.8418 108.449 84.1973 108.289C84.5527 108.125 84.9512 108.043 85.3926 108.043C85.8379 108.043 86.2383 108.125 86.5938 108.289C86.9531 108.449 87.2578 108.676 87.5078 108.969C87.7617 109.258 87.9551 109.6 88.0879 109.994C88.2207 110.385 88.2871 110.809 88.2871 111.266V111.4C88.2871 111.857 88.2207 112.281 88.0879 112.672C87.9551 113.062 87.7617 113.404 87.5078 113.697C87.2578 113.986 86.9551 114.213 86.5996 114.377C86.248 114.537 85.8496 114.617 85.4043 114.617C84.959 114.617 84.5586 114.537 84.2031 114.377C83.8477 114.213 83.543 113.986 83.2891 113.697C83.0391 113.404 82.8477 113.062 82.7148 112.672C82.582 112.281 82.5156 111.857 82.5156 111.4ZM83.5996 111.266V111.4C83.5996 111.717 83.6367 112.016 83.7109 112.297C83.7852 112.574 83.8965 112.82 84.0449 113.035C84.1973 113.25 84.3867 113.42 84.6133 113.545C84.8398 113.666 85.1035 113.727 85.4043 113.727C85.7012 113.727 85.9609 113.666 86.1836 113.545C86.4102 113.42 86.5977 113.25 86.7461 113.035C86.8945 112.82 87.0059 112.574 87.0801 112.297C87.1582 112.016 87.1973 111.717 87.1973 111.4V111.266C87.1973 110.953 87.1582 110.658 87.0801 110.381C87.0059 110.1 86.8926 109.852 86.7402 109.637C86.5918 109.418 86.4043 109.246 86.1777 109.121C85.9551 108.996 85.6934 108.934 85.3926 108.934C85.0957 108.934 84.834 108.996 84.6074 109.121C84.3848 109.246 84.1973 109.418 84.0449 109.637C83.8965 109.852 83.7852 110.1 83.7109 110.381C83.6367 110.658 83.5996 110.953 83.5996 111.266ZM90.7305 109.514V114.5H89.6465V108.16H90.6719L90.7305 109.514ZM90.4727 111.09L90.0215 111.072C90.0254 110.639 90.0898 110.238 90.2148 109.871C90.3398 109.5 90.5156 109.178 90.7422 108.904C90.9688 108.631 91.2383 108.42 91.5508 108.271C91.8672 108.119 92.2168 108.043 92.5996 108.043C92.9121 108.043 93.1934 108.086 93.4434 108.172C93.6934 108.254 93.9062 108.387 94.082 108.57C94.2617 108.754 94.3984 108.992 94.4922 109.285C94.5859 109.574 94.6328 109.928 94.6328 110.346V114.5H93.543V110.334C93.543 110.002 93.4941 109.736 93.3965 109.537C93.2988 109.334 93.1562 109.188 92.9688 109.098C92.7812 109.004 92.5508 108.957 92.2773 108.957C92.0078 108.957 91.7617 109.014 91.5391 109.127C91.3203 109.24 91.1309 109.396 90.9707 109.596C90.8145 109.795 90.6914 110.023 90.6016 110.281C90.5156 110.535 90.4727 110.805 90.4727 111.09ZM98.9336 108.16V108.992H95.5059V108.16H98.9336ZM96.666 106.619H97.75V112.93C97.75 113.145 97.7832 113.307 97.8496 113.416C97.916 113.525 98.002 113.598 98.1074 113.633C98.2129 113.668 98.3262 113.686 98.4473 113.686C98.5371 113.686 98.6309 113.678 98.7285 113.662C98.8301 113.643 98.9062 113.627 98.957 113.615L98.9629 114.5C98.877 114.527 98.7637 114.553 98.623 114.576C98.4863 114.604 98.3203 114.617 98.125 114.617C97.8594 114.617 97.6152 114.564 97.3926 114.459C97.1699 114.354 96.9922 114.178 96.8594 113.932C96.7305 113.682 96.666 113.346 96.666 112.924V106.619ZM101.289 105.5V114.5H100.205V105.5H101.289ZM101.031 111.09L100.58 111.072C100.584 110.639 100.648 110.238 100.773 109.871C100.898 109.5 101.074 109.178 101.301 108.904C101.527 108.631 101.797 108.42 102.109 108.271C102.426 108.119 102.775 108.043 103.158 108.043C103.471 108.043 103.752 108.086 104.002 108.172C104.252 108.254 104.465 108.387 104.641 108.57C104.82 108.754 104.957 108.992 105.051 109.285C105.145 109.574 105.191 109.928 105.191 110.346V114.5H104.102V110.334C104.102 110.002 104.053 109.736 103.955 109.537C103.857 109.334 103.715 109.188 103.527 109.098C103.34 109.004 103.109 108.957 102.836 108.957C102.566 108.957 102.32 109.014 102.098 109.127C101.879 109.24 101.689 109.396 101.529 109.596C101.373 109.795 101.25 110.023 101.16 110.281C101.074 110.535 101.031 110.805 101.031 111.09Z" fill="#303030"/>
<defs>
<linearGradient id="paint0_linear_360_226" x1="37" y1="-10.5" x2="61.5" y2="52" gradientUnits="userSpaceOnUse">
<stop stop-color="#FF5151"/>
<stop offset="1" stop-color="white" stop-opacity="0"/>
</linearGradient>
</defs>
</svg>
