<svg width="18" height="18" viewBox="0 0 18 18" fill="none" xmlns="http://www.w3.org/2000/svg">
<path d="M10.3703 18H7.09427C6.88901 18 6.6899 17.9299 6.52997 17.8012C6.37004 17.6726 6.25889 17.4931 6.21497 17.2926L5.84867 15.597C5.36002 15.3829 4.89668 15.1151 4.46717 14.7987L2.81387 15.3252C2.61818 15.3876 2.40702 15.3812 2.21548 15.307C2.02393 15.2329 1.86351 15.0954 1.76087 14.9175L0.119269 12.0816C0.0176998 11.9035 -0.0204268 11.6962 0.0111271 11.4937C0.042681 11.2911 0.142047 11.1052 0.292969 10.9665L1.57547 9.7965C1.51715 9.2665 1.51715 8.7317 1.57547 8.2017L0.292969 7.0344C0.141833 6.8956 0.0423321 6.70957 0.010773 6.5068C-0.020786 6.30404 0.0174693 6.09657 0.119269 5.9184L1.75727 3.0807C1.85991 2.90278 2.02033 2.76533 2.21188 2.69117C2.40342 2.61701 2.61458 2.61059 2.81027 2.673L4.46357 3.1995C4.68317 3.0375 4.91177 2.8863 5.14757 2.7495C5.37527 2.6217 5.60927 2.5056 5.84867 2.4021L6.21587 0.7083C6.25958 0.507778 6.37052 0.328219 6.53028 0.199394C6.69004 0.0705689 6.88904 0.000215969 7.09427 0H10.3703C10.5755 0.000215969 10.7745 0.0705689 10.9343 0.199394C11.094 0.328219 11.205 0.507778 11.2487 0.7083L11.6195 2.403C11.8715 2.5146 12.1181 2.6397 12.3566 2.7792C12.5789 2.9079 12.794 3.0492 13.001 3.2013L14.6552 2.6748C14.8507 2.61262 15.0617 2.61915 15.253 2.6933C15.4444 2.76746 15.6047 2.90478 15.7073 3.0825L17.3453 5.9202C17.5541 6.2865 17.4821 6.75 17.1716 7.0353L15.8891 8.2053C15.9474 8.7353 15.9474 9.2701 15.8891 9.8001L17.1716 10.9701C17.4821 11.2563 17.5541 11.7189 17.3453 12.0852L15.7073 14.9229C15.6046 15.1008 15.4442 15.2383 15.2527 15.3124C15.0611 15.3866 14.85 15.393 14.6543 15.3306L13.001 14.8041C12.5718 15.1203 12.1087 15.3878 11.6204 15.6015L11.2487 17.2926C11.2048 17.493 11.0938 17.6723 10.934 17.801C10.7743 17.9296 10.5754 17.9998 10.3703 18ZM8.72867 5.4C7.77389 5.4 6.85822 5.77928 6.18308 6.45442C5.50795 7.12955 5.12867 8.04522 5.12867 9C5.12867 9.95478 5.50795 10.8705 6.18308 11.5456C6.85822 12.2207 7.77389 12.6 8.72867 12.6C9.68345 12.6 10.5991 12.2207 11.2743 11.5456C11.9494 10.8705 12.3287 9.95478 12.3287 9C12.3287 8.04522 11.9494 7.12955 11.2743 6.45442C10.5991 5.77928 9.68345 5.4 8.72867 5.4Z" fill="#B2B2B2"/>
</svg>
