<svg width="18" height="15" viewBox="0 0 18 15" fill="none" xmlns="http://www.w3.org/2000/svg">
<path d="M12 3C12 3.79565 11.6839 4.55871 11.1213 5.12132C10.5587 5.68393 9.79565 6 9 6C8.20435 6 7.44129 5.68393 6.87868 5.12132C6.31607 4.55871 6 3.79565 6 3C6 2.20435 6.31607 1.44129 6.87868 0.87868C7.44129 0.316071 8.20435 0 9 0C9.79565 0 10.5587 0.316071 11.1213 0.87868C11.6839 1.44129 12 2.20435 12 3Z" fill="#B2B2B2"/>
<path d="M17 5C17 5.53043 16.7893 6.03914 16.4142 6.41421C16.0391 6.78929 15.5304 7 15 7C14.4696 7 13.9609 6.78929 13.5858 6.41421C13.2107 6.03914 13 5.53043 13 5C13 4.46957 13.2107 3.96086 13.5858 3.58579C13.9609 3.21071 14.4696 3 15 3C15.5304 3 16.0391 3.21071 16.4142 3.58579C16.7893 3.96086 17 4.46957 17 5Z" fill="#B2B2B2"/>
<path d="M5 5C5 5.53043 4.78929 6.03914 4.41421 6.41421C4.03914 6.78929 3.53043 7 3 7C2.46957 7 1.96086 6.78929 1.58579 6.41421C1.21071 6.03914 1 5.53043 1 5C1 4.46957 1.21071 3.96086 1.58579 3.58579C1.96086 3.21071 2.46957 3 3 3C3.53043 3 4.03914 3.21071 4.41421 3.58579C4.78929 3.96086 5 4.46957 5 5Z" fill="#B2B2B2"/>
<path d="M15 15.0001V12.0001C15.0014 10.9833 14.7433 9.98309 14.25 9.09406C14.6933 8.9806 15.1568 8.9699 15.6049 9.06278C16.053 9.15566 16.474 9.34965 16.8357 9.62997C17.1974 9.91029 17.4903 10.2695 17.6921 10.6803C17.8939 11.091 17.9992 11.5424 18 12.0001V15.0001H15Z" fill="#B2B2B2"/>
<path d="M3.75 9.09404C3.25675 9.98309 2.9986 10.9833 3 12V15H2.6572e-07V12C-0.000192468 11.5421 0.104463 11.0902 0.305947 10.6789C0.507431 10.2676 0.800394 9.90798 1.16238 9.62746C1.52437 9.34694 1.94578 9.15302 2.39431 9.06056C2.84284 8.9681 3.30658 8.97955 3.75 9.09404Z" fill="#B2B2B2"/>
<rect x="5" y="8" width="8" height="7" rx="3" fill="#B2B2B2"/>
</svg>
