<svg width="18" height="18" viewBox="0 0 18 18" fill="none" xmlns="http://www.w3.org/2000/svg">
<path d="M9 0C4.032 0 0 4.032 0 9C0 13.968 4.032 18 9 18C13.968 18 18 13.968 18 9C18 4.032 13.968 0 9 0ZM5.4 13.95C4.80326 13.95 4.23097 13.7129 3.80901 13.291C3.38705 12.869 3.15 12.2967 3.15 11.7C3.15 11.1033 3.38705 10.531 3.80901 10.109C4.23097 9.68705 4.80326 9.45 5.4 9.45C5.99674 9.45 6.56903 9.68705 6.99099 10.109C7.41295 10.531 7.65 11.1033 7.65 11.7C7.65 12.2967 7.41295 12.869 6.99099 13.291C6.56903 13.7129 5.99674 13.95 5.4 13.95ZM6.75 5.4C6.75 4.80326 6.98705 4.23097 7.40901 3.80901C7.83097 3.38705 8.40326 3.15 9 3.15C9.59674 3.15 10.169 3.38705 10.591 3.80901C11.0129 4.23097 11.25 4.80326 11.25 5.4C11.25 5.99674 11.0129 6.56903 10.591 6.99099C10.169 7.41295 9.59674 7.65 9 7.65C8.40326 7.65 7.83097 7.41295 7.40901 6.99099C6.98705 6.56903 6.75 5.99674 6.75 5.4ZM12.6 13.95C12.0033 13.95 11.431 13.7129 11.009 13.291C10.5871 12.869 10.35 12.2967 10.35 11.7C10.35 11.1033 10.5871 10.531 11.009 10.109C11.431 9.68705 12.0033 9.45 12.6 9.45C13.1967 9.45 13.769 9.68705 14.191 10.109C14.6129 10.531 14.85 11.1033 14.85 11.7C14.85 12.2967 14.6129 12.869 14.191 13.291C13.769 13.7129 13.1967 13.95 12.6 13.95Z" fill="#B2B2B2"/>
</svg>
